<mxfile host="app.diagrams.net" modified="2024-05-24T07:11:49.607Z" agent="Mozilla/5.0 (Windows NT 10.0; Win64; x64) AppleWebKit/537.36 (KHTML, like Gecko) Chrome/124.0.0.0 Safari/537.36" etag="TNh1wpEaaRQ3XZ8ZmMRl" version="24.4.6" type="device">
  <diagram name="Page-1" id="qa1lLlkkrb0a4fqFDJw6">
    <mxGraphModel dx="4327" dy="1767" grid="1" gridSize="10" guides="1" tooltips="1" connect="1" arrows="1" fold="1" page="1" pageScale="1" pageWidth="827" pageHeight="1169" math="0" shadow="0">
      <root>
        <mxCell id="0" />
        <mxCell id="1" parent="0" />
        <mxCell id="kzR6ocVwQmeVVHhxeFFQ-3" value="&lt;h2&gt;&lt;font face=&quot;Lucida Console&quot; style=&quot;font-size: 28px;&quot;&gt;Welcome to SalusPekt&lt;/font&gt;&lt;/h2&gt;&lt;div&gt;&lt;font face=&quot;Lucida Console&quot; style=&quot;font-size: 20px;&quot;&gt;Password security checker&lt;/font&gt;&lt;/div&gt;" style="rounded=0;whiteSpace=wrap;html=1;" parent="1" vertex="1">
          <mxGeometry x="134" y="270" width="566" height="360" as="geometry" />
        </mxCell>
        <mxCell id="kzR6ocVwQmeVVHhxeFFQ-4" value="password-validator" style="rounded=0;whiteSpace=wrap;html=1;" parent="1" vertex="1">
          <mxGeometry x="134" y="230" width="566" height="40" as="geometry" />
        </mxCell>
        <mxCell id="kzR6ocVwQmeVVHhxeFFQ-5" value="" style="endArrow=none;html=1;rounded=0;exitX=0.894;exitY=-0.002;exitDx=0;exitDy=0;exitPerimeter=0;" parent="1" source="kzR6ocVwQmeVVHhxeFFQ-3" edge="1">
          <mxGeometry width="50" height="50" relative="1" as="geometry">
            <mxPoint x="370" y="330" as="sourcePoint" />
            <mxPoint x="640" y="230" as="targetPoint" />
          </mxGeometry>
        </mxCell>
        <mxCell id="kzR6ocVwQmeVVHhxeFFQ-7" value="&lt;font style=&quot;font-size: 14px;&quot;&gt;&lt;b&gt;Secure your password!&lt;/b&gt;&lt;/font&gt;" style="rounded=1;whiteSpace=wrap;html=1;arcSize=50;" parent="1" vertex="1">
          <mxGeometry x="160" y="555" width="260" height="60" as="geometry" />
        </mxCell>
        <mxCell id="kzR6ocVwQmeVVHhxeFFQ-8" value="" style="whiteSpace=wrap;html=1;aspect=fixed;rounded=1;arcSize=24;" parent="1" vertex="1">
          <mxGeometry x="500" y="555" width="60" height="60" as="geometry" />
        </mxCell>
        <mxCell id="kzR6ocVwQmeVVHhxeFFQ-9" value="" style="whiteSpace=wrap;html=1;aspect=fixed;rounded=1;arcSize=27;" parent="1" vertex="1">
          <mxGeometry x="600" y="555" width="60" height="60" as="geometry" />
        </mxCell>
        <mxCell id="kzR6ocVwQmeVVHhxeFFQ-10" value="" style="verticalLabelPosition=bottom;verticalAlign=top;html=1;shape=mxgraph.basic.x" parent="1" vertex="1">
          <mxGeometry x="650" y="235" width="30" height="30" as="geometry" />
        </mxCell>
        <mxCell id="kzR6ocVwQmeVVHhxeFFQ-12" value="" style="shape=image;verticalLabelPosition=bottom;labelBackgroundColor=default;verticalAlign=top;aspect=fixed;imageAspect=0;image=https://upload.wikimedia.org/wikipedia/commons/5/5a/Black_question_mark.png;" parent="1" vertex="1">
          <mxGeometry x="515" y="570" width="30" height="30" as="geometry" />
        </mxCell>
        <mxCell id="kzR6ocVwQmeVVHhxeFFQ-13" value="" style="whiteSpace=wrap;html=1;shape=mxgraph.basic.roundRectCallout;dx=31.6;dy=14;size=10.5;boundedLbl=1;" parent="1" vertex="1">
          <mxGeometry x="610" y="565" width="40" height="50" as="geometry" />
        </mxCell>
        <mxCell id="kzR6ocVwQmeVVHhxeFFQ-15" value="" style="ellipse;whiteSpace=wrap;html=1;aspect=fixed;fillColor=#141414;" parent="1" vertex="1">
          <mxGeometry x="150" y="280" width="40" height="40" as="geometry" />
        </mxCell>
        <mxCell id="kzR6ocVwQmeVVHhxeFFQ-16" value="" style="ellipse;whiteSpace=wrap;html=1;aspect=fixed;fillColor=#141414;" parent="1" vertex="1">
          <mxGeometry x="200" y="280" width="40" height="40" as="geometry" />
        </mxCell>
        <mxCell id="kzR6ocVwQmeVVHhxeFFQ-17" value="" style="ellipse;whiteSpace=wrap;html=1;aspect=fixed;fillColor=#141414;" parent="1" vertex="1">
          <mxGeometry x="250" y="280" width="40" height="40" as="geometry" />
        </mxCell>
        <mxCell id="kzR6ocVwQmeVVHhxeFFQ-18" value="" style="ellipse;whiteSpace=wrap;html=1;aspect=fixed;fillColor=#141414;" parent="1" vertex="1">
          <mxGeometry x="300" y="280" width="40" height="40" as="geometry" />
        </mxCell>
        <mxCell id="kzR6ocVwQmeVVHhxeFFQ-19" value="" style="ellipse;whiteSpace=wrap;html=1;aspect=fixed;fillColor=#141414;" parent="1" vertex="1">
          <mxGeometry x="350" y="280" width="40" height="40" as="geometry" />
        </mxCell>
        <mxCell id="kzR6ocVwQmeVVHhxeFFQ-21" value="" style="ellipse;whiteSpace=wrap;html=1;aspect=fixed;fillColor=#141414;" parent="1" vertex="1">
          <mxGeometry x="400" y="280" width="40" height="40" as="geometry" />
        </mxCell>
        <mxCell id="kzR6ocVwQmeVVHhxeFFQ-22" value="" style="ellipse;whiteSpace=wrap;html=1;aspect=fixed;fillColor=#141414;" parent="1" vertex="1">
          <mxGeometry x="450" y="280" width="40" height="40" as="geometry" />
        </mxCell>
        <mxCell id="kzR6ocVwQmeVVHhxeFFQ-24" value="" style="ellipse;whiteSpace=wrap;html=1;aspect=fixed;fillColor=#141414;" parent="1" vertex="1">
          <mxGeometry x="505" y="280" width="40" height="40" as="geometry" />
        </mxCell>
        <mxCell id="kzR6ocVwQmeVVHhxeFFQ-25" value="" style="ellipse;whiteSpace=wrap;html=1;aspect=fixed;fillColor=#141414;" parent="1" vertex="1">
          <mxGeometry x="560" y="280" width="40" height="40" as="geometry" />
        </mxCell>
        <mxCell id="kzR6ocVwQmeVVHhxeFFQ-26" value="" style="ellipse;whiteSpace=wrap;html=1;aspect=fixed;fillColor=#141414;" parent="1" vertex="1">
          <mxGeometry x="610" y="280" width="40" height="40" as="geometry" />
        </mxCell>
        <mxCell id="kzR6ocVwQmeVVHhxeFFQ-30" value="" style="endArrow=none;html=1;rounded=0;" parent="1" edge="1">
          <mxGeometry width="50" height="50" relative="1" as="geometry">
            <mxPoint y="770" as="sourcePoint" />
            <mxPoint x="210" y="620" as="targetPoint" />
          </mxGeometry>
        </mxCell>
        <mxCell id="kzR6ocVwQmeVVHhxeFFQ-31" value="" style="endArrow=none;html=1;rounded=0;" parent="1" edge="1">
          <mxGeometry width="50" height="50" relative="1" as="geometry">
            <mxPoint y="770" as="sourcePoint" />
            <mxPoint x="-50" y="770" as="targetPoint" />
          </mxGeometry>
        </mxCell>
        <mxCell id="kzR6ocVwQmeVVHhxeFFQ-32" value="" style="rounded=0;whiteSpace=wrap;html=1;" parent="1" vertex="1">
          <mxGeometry x="-680" y="570" width="580" height="405" as="geometry" />
        </mxCell>
        <mxCell id="kzR6ocVwQmeVVHhxeFFQ-33" value="enter_password" style="rounded=0;whiteSpace=wrap;html=1;" parent="1" vertex="1">
          <mxGeometry x="-680" y="510" width="580" height="60" as="geometry" />
        </mxCell>
        <mxCell id="kzR6ocVwQmeVVHhxeFFQ-34" value="" style="endArrow=none;html=1;rounded=0;exitX=0.879;exitY=1.012;exitDx=0;exitDy=0;exitPerimeter=0;" parent="1" source="kzR6ocVwQmeVVHhxeFFQ-33" edge="1">
          <mxGeometry width="50" height="50" relative="1" as="geometry">
            <mxPoint x="-169.29999999999995" y="577.8599999999999" as="sourcePoint" />
            <mxPoint x="-170" y="510" as="targetPoint" />
          </mxGeometry>
        </mxCell>
        <mxCell id="kzR6ocVwQmeVVHhxeFFQ-35" value="" style="verticalLabelPosition=bottom;verticalAlign=top;html=1;shape=mxgraph.basic.x" parent="1" vertex="1">
          <mxGeometry x="-150" y="525" width="30" height="30" as="geometry" />
        </mxCell>
        <mxCell id="kzR6ocVwQmeVVHhxeFFQ-38" value="" style="endArrow=none;html=1;rounded=0;" parent="1" edge="1">
          <mxGeometry width="50" height="50" relative="1" as="geometry">
            <mxPoint x="440" y="880" as="sourcePoint" />
            <mxPoint x="515" y="620" as="targetPoint" />
          </mxGeometry>
        </mxCell>
        <mxCell id="kzR6ocVwQmeVVHhxeFFQ-40" value="information" style="rounded=0;whiteSpace=wrap;html=1;" parent="1" vertex="1">
          <mxGeometry x="127" y="890" width="580" height="60" as="geometry" />
        </mxCell>
        <mxCell id="kzR6ocVwQmeVVHhxeFFQ-41" value="" style="endArrow=none;html=1;rounded=0;exitX=0.879;exitY=1.012;exitDx=0;exitDy=0;exitPerimeter=0;" parent="1" edge="1">
          <mxGeometry width="50" height="50" relative="1" as="geometry">
            <mxPoint x="620" y="951" as="sourcePoint" />
            <mxPoint x="620" y="890" as="targetPoint" />
          </mxGeometry>
        </mxCell>
        <mxCell id="kzR6ocVwQmeVVHhxeFFQ-42" value="" style="verticalLabelPosition=bottom;verticalAlign=top;html=1;shape=mxgraph.basic.x" parent="1" vertex="1">
          <mxGeometry x="650" y="905" width="30" height="30" as="geometry" />
        </mxCell>
        <mxCell id="kzR6ocVwQmeVVHhxeFFQ-43" value="" style="endArrow=none;html=1;rounded=0;" parent="1" edge="1">
          <mxGeometry width="50" height="50" relative="1" as="geometry">
            <mxPoint x="680" y="600" as="sourcePoint" />
            <mxPoint x="1010" y="690" as="targetPoint" />
          </mxGeometry>
        </mxCell>
        <mxCell id="kzR6ocVwQmeVVHhxeFFQ-44" value="" style="rounded=0;whiteSpace=wrap;html=1;" parent="1" vertex="1">
          <mxGeometry x="1030" y="640" width="580" height="405" as="geometry" />
        </mxCell>
        <mxCell id="kzR6ocVwQmeVVHhxeFFQ-45" value="explanation" style="rounded=0;whiteSpace=wrap;html=1;" parent="1" vertex="1">
          <mxGeometry x="1030" y="585" width="580" height="60" as="geometry" />
        </mxCell>
        <mxCell id="kzR6ocVwQmeVVHhxeFFQ-46" value="" style="endArrow=none;html=1;rounded=0;exitX=0.86;exitY=1.014;exitDx=0;exitDy=0;exitPerimeter=0;" parent="1" source="kzR6ocVwQmeVVHhxeFFQ-45" edge="1">
          <mxGeometry width="50" height="50" relative="1" as="geometry">
            <mxPoint x="1530" y="640" as="sourcePoint" />
            <mxPoint x="1529" y="580" as="targetPoint" />
          </mxGeometry>
        </mxCell>
        <mxCell id="kzR6ocVwQmeVVHhxeFFQ-47" value="" style="endArrow=none;html=1;rounded=0;exitX=0.879;exitY=1.012;exitDx=0;exitDy=0;exitPerimeter=0;" parent="1" target="kzR6ocVwQmeVVHhxeFFQ-39" edge="1">
          <mxGeometry width="50" height="50" relative="1" as="geometry">
            <mxPoint x="630" y="961" as="sourcePoint" />
            <mxPoint x="630" y="900" as="targetPoint" />
          </mxGeometry>
        </mxCell>
        <mxCell id="kzR6ocVwQmeVVHhxeFFQ-39" value="" style="rounded=0;whiteSpace=wrap;html=1;" parent="1" vertex="1">
          <mxGeometry x="127" y="950" width="580" height="405" as="geometry" />
        </mxCell>
        <mxCell id="kzR6ocVwQmeVVHhxeFFQ-48" value="" style="verticalLabelPosition=bottom;verticalAlign=top;html=1;shape=mxgraph.basic.x" parent="1" vertex="1">
          <mxGeometry x="1550" y="600" width="30" height="30" as="geometry" />
        </mxCell>
        <mxCell id="kzR6ocVwQmeVVHhxeFFQ-49" value="&lt;font style=&quot;font-size: 14px;&quot;&gt;&lt;b style=&quot;&quot;&gt;Weakest Link&lt;/b&gt;: It is &lt;u style=&quot;&quot;&gt;HIGHLY&lt;/u&gt; recommended you change/alter your password to secure your accounts&lt;/font&gt;&lt;div style=&quot;font-size: 14px;&quot;&gt;&lt;font style=&quot;font-size: 14px;&quot;&gt;&lt;br&gt;&lt;/font&gt;&lt;/div&gt;&lt;div style=&quot;font-size: 14px;&quot;&gt;&lt;font style=&quot;font-size: 14px;&quot;&gt;&lt;b&gt;Mediocre&lt;/b&gt;: You should change your password, nobody wants to be mediocre&lt;/font&gt;&lt;/div&gt;&lt;div style=&quot;font-size: 14px;&quot;&gt;&lt;font style=&quot;font-size: 14px;&quot;&gt;&lt;br&gt;&lt;/font&gt;&lt;/div&gt;&lt;div style=&quot;font-size: 14px;&quot;&gt;&lt;font style=&quot;font-size: 14px;&quot;&gt;&lt;b&gt;Good&lt;/b&gt;: Your password is secure, however, it can be improved.&lt;/font&gt;&lt;/div&gt;&lt;div style=&quot;font-size: 14px;&quot;&gt;&lt;font style=&quot;font-size: 14px;&quot;&gt;&lt;br&gt;&lt;/font&gt;&lt;/div&gt;&lt;div style=&quot;font-size: 14px;&quot;&gt;&lt;font style=&quot;font-size: 14px;&quot;&gt;&lt;b style=&quot;&quot;&gt;5 STARS&lt;/b&gt;: Your password meets all criteria of a good password, well done&lt;/font&gt;&lt;/div&gt;" style="rounded=0;whiteSpace=wrap;html=1;" parent="1" vertex="1">
          <mxGeometry x="150" y="980" width="180" height="350" as="geometry" />
        </mxCell>
        <mxCell id="kzR6ocVwQmeVVHhxeFFQ-51" value="&lt;font style=&quot;font-size: 16px;&quot;&gt;SalusPekt is a piece of software that is designed to put the security of your password to the test. It will be tested through different things such as (but not limited to) the character length, if it contains special characters, if it contains numbers or if it contains capitals. A stronger password lessen the likelihood of having your information breached in a data leak.&lt;/font&gt;" style="rounded=0;whiteSpace=wrap;html=1;" parent="1" vertex="1">
          <mxGeometry x="350" y="980" width="340" height="220" as="geometry" />
        </mxCell>
        <mxCell id="kzR6ocVwQmeVVHhxeFFQ-53" value="&lt;font style=&quot;font-size: 14px;&quot;&gt;&lt;b&gt;Secure your password!&lt;/b&gt;&lt;/font&gt;" style="rounded=1;whiteSpace=wrap;html=1;arcSize=50;" parent="1" vertex="1">
          <mxGeometry x="390" y="1210" width="260" height="60" as="geometry" />
        </mxCell>
        <mxCell id="kzR6ocVwQmeVVHhxeFFQ-54" value="" style="whiteSpace=wrap;html=1;aspect=fixed;rounded=1;arcSize=27;" parent="1" vertex="1">
          <mxGeometry x="440" y="1280" width="60" height="60" as="geometry" />
        </mxCell>
        <mxCell id="kzR6ocVwQmeVVHhxeFFQ-55" value="" style="whiteSpace=wrap;html=1;aspect=fixed;rounded=1;arcSize=27;" parent="1" vertex="1">
          <mxGeometry x="550" y="1280" width="60" height="60" as="geometry" />
        </mxCell>
        <mxCell id="kzR6ocVwQmeVVHhxeFFQ-56" value="" style="whiteSpace=wrap;html=1;shape=mxgraph.basic.roundRectCallout;dx=31.6;dy=14;size=10.5;boundedLbl=1;" parent="1" vertex="1">
          <mxGeometry x="560" y="1285" width="40" height="50" as="geometry" />
        </mxCell>
        <mxCell id="kzR6ocVwQmeVVHhxeFFQ-57" value="" style="verticalLabelPosition=bottom;verticalAlign=top;html=1;shape=mxgraph.basic.star" parent="1" vertex="1">
          <mxGeometry x="450" y="1290" width="40" height="40" as="geometry" />
        </mxCell>
        <mxCell id="rH_Kz6Kx03X3VxlvLuOS-1" value="" style="rounded=1;whiteSpace=wrap;html=1;arcSize=50;" vertex="1" parent="1">
          <mxGeometry x="-500" y="600" width="373" height="60" as="geometry" />
        </mxCell>
        <mxCell id="rH_Kz6Kx03X3VxlvLuOS-2" value="enter password:" style="text;html=1;align=center;verticalAlign=middle;whiteSpace=wrap;rounded=0;" vertex="1" parent="1">
          <mxGeometry x="-620" y="615" width="100" height="30" as="geometry" />
        </mxCell>
        <mxCell id="rH_Kz6Kx03X3VxlvLuOS-3" value="" style="rounded=0;whiteSpace=wrap;html=1;" vertex="1" parent="1">
          <mxGeometry x="-640" y="700" width="240" height="240" as="geometry" />
        </mxCell>
        <mxCell id="rH_Kz6Kx03X3VxlvLuOS-4" value="" style="ellipse;whiteSpace=wrap;html=1;aspect=fixed;" vertex="1" parent="1">
          <mxGeometry x="-444" y="710" width="30" height="30" as="geometry" />
        </mxCell>
        <mxCell id="rH_Kz6Kx03X3VxlvLuOS-8" value="Contains Capitals" style="text;html=1;align=center;verticalAlign=middle;whiteSpace=wrap;rounded=0;" vertex="1" parent="1">
          <mxGeometry x="-630" y="757.5" width="110" height="30" as="geometry" />
        </mxCell>
        <mxCell id="rH_Kz6Kx03X3VxlvLuOS-9" value="Contains Special Characters" style="text;html=1;align=center;verticalAlign=middle;whiteSpace=wrap;rounded=0;" vertex="1" parent="1">
          <mxGeometry x="-625" y="845" width="155" height="30" as="geometry" />
        </mxCell>
        <mxCell id="rH_Kz6Kx03X3VxlvLuOS-10" value="Contains Numbers" style="text;html=1;align=center;verticalAlign=middle;whiteSpace=wrap;rounded=0;" vertex="1" parent="1">
          <mxGeometry x="-630" y="800" width="110" height="30" as="geometry" />
        </mxCell>
        <mxCell id="rH_Kz6Kx03X3VxlvLuOS-11" value="Contains 8+ characters" style="text;html=1;align=center;verticalAlign=middle;whiteSpace=wrap;rounded=0;" vertex="1" parent="1">
          <mxGeometry x="-630" y="720" width="140" height="30" as="geometry" />
        </mxCell>
        <mxCell id="rH_Kz6Kx03X3VxlvLuOS-12" value="" style="ellipse;whiteSpace=wrap;html=1;aspect=fixed;" vertex="1" parent="1">
          <mxGeometry x="-444" y="757.5" width="30" height="30" as="geometry" />
        </mxCell>
        <mxCell id="rH_Kz6Kx03X3VxlvLuOS-13" value="" style="ellipse;whiteSpace=wrap;html=1;aspect=fixed;" vertex="1" parent="1">
          <mxGeometry x="-444" y="800" width="30" height="30" as="geometry" />
        </mxCell>
        <mxCell id="rH_Kz6Kx03X3VxlvLuOS-14" value="" style="ellipse;whiteSpace=wrap;html=1;aspect=fixed;" vertex="1" parent="1">
          <mxGeometry x="-444" y="845" width="30" height="30" as="geometry" />
        </mxCell>
        <mxCell id="rH_Kz6Kx03X3VxlvLuOS-15" value="" style="ellipse;whiteSpace=wrap;html=1;aspect=fixed;" vertex="1" parent="1">
          <mxGeometry x="-444" y="890" width="30" height="30" as="geometry" />
        </mxCell>
        <mxCell id="rH_Kz6Kx03X3VxlvLuOS-16" value="" style="endArrow=none;html=1;rounded=0;entryX=0.931;entryY=0.37;entryDx=0;entryDy=0;entryPerimeter=0;exitX=-0.021;exitY=0.378;exitDx=0;exitDy=0;exitPerimeter=0;" edge="1" parent="1" source="rH_Kz6Kx03X3VxlvLuOS-17" target="kzR6ocVwQmeVVHhxeFFQ-32">
          <mxGeometry width="50" height="50" relative="1" as="geometry">
            <mxPoint x="-360" y="720" as="sourcePoint" />
            <mxPoint x="-310" y="670" as="targetPoint" />
          </mxGeometry>
        </mxCell>
        <mxCell id="rH_Kz6Kx03X3VxlvLuOS-18" value="" style="endArrow=none;html=1;rounded=0;entryX=0.931;entryY=0.37;entryDx=0;entryDy=0;entryPerimeter=0;" edge="1" parent="1" target="rH_Kz6Kx03X3VxlvLuOS-17">
          <mxGeometry width="50" height="50" relative="1" as="geometry">
            <mxPoint x="-360" y="720" as="sourcePoint" />
            <mxPoint x="-140" y="720" as="targetPoint" />
          </mxGeometry>
        </mxCell>
        <mxCell id="rH_Kz6Kx03X3VxlvLuOS-17" value="" style="ellipse;whiteSpace=wrap;html=1;aspect=fixed;fillColor=#141414;" vertex="1" parent="1">
          <mxGeometry x="-210" y="710" width="27.5" height="27.5" as="geometry" />
        </mxCell>
        <mxCell id="rH_Kz6Kx03X3VxlvLuOS-19" value="Rating:" style="text;html=1;align=center;verticalAlign=middle;whiteSpace=wrap;rounded=0;" vertex="1" parent="1">
          <mxGeometry x="-370" y="770" width="60" height="30" as="geometry" />
        </mxCell>
        <mxCell id="rH_Kz6Kx03X3VxlvLuOS-20" value="Recommendation:" style="text;html=1;align=center;verticalAlign=middle;whiteSpace=wrap;rounded=0;" vertex="1" parent="1">
          <mxGeometry x="-343.5" y="850" width="60" height="30" as="geometry" />
        </mxCell>
        <mxCell id="rH_Kz6Kx03X3VxlvLuOS-21" value="Doesn&#39;t contain consecutive characters" style="text;html=1;align=center;verticalAlign=middle;whiteSpace=wrap;rounded=0;" vertex="1" parent="1">
          <mxGeometry x="-625" y="890" width="125" height="30" as="geometry" />
        </mxCell>
        <mxCell id="rH_Kz6Kx03X3VxlvLuOS-22" value="" style="whiteSpace=wrap;html=1;aspect=fixed;rounded=1;arcSize=27;" vertex="1" parent="1">
          <mxGeometry x="-170" y="905" width="60" height="60" as="geometry" />
        </mxCell>
        <mxCell id="rH_Kz6Kx03X3VxlvLuOS-23" value="" style="triangle;whiteSpace=wrap;html=1;rotation=-90;" vertex="1" parent="1">
          <mxGeometry x="-148.75" y="901.25" width="17.5" height="40" as="geometry" />
        </mxCell>
        <mxCell id="rH_Kz6Kx03X3VxlvLuOS-25" value="" style="rounded=0;whiteSpace=wrap;html=1;" vertex="1" parent="1">
          <mxGeometry x="-155" y="930" width="30" height="20" as="geometry" />
        </mxCell>
        <mxCell id="rH_Kz6Kx03X3VxlvLuOS-26" value="ABOUT US:&lt;div&gt;&lt;br&gt;&lt;/div&gt;&lt;div&gt;SalusPekt is a an app that is made to help you secure you password against hackers and the riff raff.&lt;/div&gt;" style="rounded=0;whiteSpace=wrap;html=1;" vertex="1" parent="1">
          <mxGeometry x="1080" y="690" width="200" height="120" as="geometry" />
        </mxCell>
        <mxCell id="rH_Kz6Kx03X3VxlvLuOS-27" value="SalusPekt was made for my software engineering assessment, please enjoy the masterpiece you have the blessing to have at your disposal.&lt;div&gt;&lt;br&gt;&lt;/div&gt;&lt;div&gt;The aim of the assessment was to create a &quot;password checker&quot; which tests the password against different criteria, much like what you would see when creating an account for something.&lt;/div&gt;&lt;div&gt;&lt;br&gt;&lt;/div&gt;&lt;div&gt;How do you think I did?&lt;/div&gt;" style="rounded=0;whiteSpace=wrap;html=1;" vertex="1" parent="1">
          <mxGeometry x="1330" y="690" width="250" height="310" as="geometry" />
        </mxCell>
        <mxCell id="rH_Kz6Kx03X3VxlvLuOS-28" value="&lt;font style=&quot;font-size: 14px;&quot;&gt;&lt;b&gt;Secure your password!&lt;/b&gt;&lt;/font&gt;" style="rounded=1;whiteSpace=wrap;html=1;arcSize=50;" vertex="1" parent="1">
          <mxGeometry x="1050" y="841.25" width="260" height="60" as="geometry" />
        </mxCell>
        <mxCell id="rH_Kz6Kx03X3VxlvLuOS-29" value="" style="whiteSpace=wrap;html=1;aspect=fixed;rounded=1;arcSize=27;" vertex="1" parent="1">
          <mxGeometry x="1090" y="930" width="60" height="60" as="geometry" />
        </mxCell>
        <mxCell id="rH_Kz6Kx03X3VxlvLuOS-30" value="" style="whiteSpace=wrap;html=1;aspect=fixed;rounded=1;arcSize=27;" vertex="1" parent="1">
          <mxGeometry x="1211" y="930" width="60" height="60" as="geometry" />
        </mxCell>
        <mxCell id="rH_Kz6Kx03X3VxlvLuOS-31" value="" style="verticalLabelPosition=bottom;verticalAlign=top;html=1;shape=mxgraph.basic.star" vertex="1" parent="1">
          <mxGeometry x="1100" y="941.25" width="40" height="40" as="geometry" />
        </mxCell>
        <mxCell id="rH_Kz6Kx03X3VxlvLuOS-32" value="" style="shape=image;verticalLabelPosition=bottom;labelBackgroundColor=default;verticalAlign=top;aspect=fixed;imageAspect=0;image=https://upload.wikimedia.org/wikipedia/commons/5/5a/Black_question_mark.png;" vertex="1" parent="1">
          <mxGeometry x="1230" y="946.25" width="30" height="30" as="geometry" />
        </mxCell>
      </root>
    </mxGraphModel>
  </diagram>
</mxfile>
